<svg xmlns="http://www.w3.org/2000/svg" width="1400" height="900" viewBox="0 0 1400 900" role="img" aria-label="SBSA no-land map base">
  <defs>
    <linearGradient id="sky" x1="0" x2="0" y1="0" y2="1">
      <stop offset="0%" stop-color="#dff4ff"/>
      <stop offset="100%" stop-color="#b8daef"/>
    </linearGradient>
    <linearGradient id="land" x1="0" x2="1" y1="0" y2="1">
      <stop offset="0%" stop-color="#d8e5c6"/>
      <stop offset="100%" stop-color="#c1d2a7"/>
    </linearGradient>
  </defs>

  <rect width="1400" height="900" fill="url(#sky)"/>
  <path d="M0,650 C190,590 360,610 510,560 C660,510 820,420 960,360 C1100,300 1230,250 1400,210 L1400,900 L0,900 Z" fill="url(#land)"/>
  <path d="M0,650 C190,590 360,610 510,560 C660,510 820,420 960,360 C1100,300 1230,250 1400,210" fill="none" stroke="#35617d" stroke-width="6"/>

  <g opacity="0.32" stroke="#6f95b0" stroke-width="2">
    <line x1="120" y1="0" x2="120" y2="900"/>
    <line x1="280" y1="0" x2="280" y2="900"/>
    <line x1="440" y1="0" x2="440" y2="900"/>
    <line x1="600" y1="0" x2="600" y2="900"/>
    <line x1="760" y1="0" x2="760" y2="900"/>
    <line x1="920" y1="0" x2="920" y2="900"/>
    <line x1="1080" y1="0" x2="1080" y2="900"/>
    <line x1="1240" y1="0" x2="1240" y2="900"/>
    <line x1="0" y1="120" x2="1400" y2="120"/>
    <line x1="0" y1="260" x2="1400" y2="260"/>
    <line x1="0" y1="400" x2="1400" y2="400"/>
    <line x1="0" y1="540" x2="1400" y2="540"/>
    <line x1="0" y1="680" x2="1400" y2="680"/>
    <line x1="0" y1="820" x2="1400" y2="820"/>
  </g>

  <g fill="#4f6d57" opacity="0.8">
    <ellipse cx="310" cy="520" rx="140" ry="56"/>
    <ellipse cx="530" cy="450" rx="180" ry="72"/>
    <ellipse cx="760" cy="370" rx="170" ry="66"/>
    <ellipse cx="1010" cy="300" rx="185" ry="72"/>
    <ellipse cx="1240" cy="245" rx="130" ry="54"/>
  </g>

  <text x="34" y="72" fill="#19426a" font-size="36" font-weight="700">SBSA No-Land Map Base</text>
  <text x="34" y="112" fill="#45607a" font-size="22">Replace this background later if you want a more exact local basemap.</text>
  <text x="34" y="850" fill="#45607a" font-size="20">Repo-owned starter SVG. Coastline and terrain are placeholders for easy editing.</text>
</svg>
